<?xml version="1.0" encoding="utf-8"?>
<!DOCTYPE svg PUBLIC "-//W3C//DTD SVG 1.1//EN" "http://www.w3.org/Graphics/SVG/1.1/DTD/svg11.dtd">
<svg version="1.1" id="Layer_1" xmlns="http://www.w3.org/2000/svg" xmlns:xlink="http://www.w3.org/1999/xlink" x="0px" y="0px"
	 width="160.751px" height="57.25px" viewBox="0 0 160.751 57.25" enable-background="new 0 0 160.751 57.25" xml:space="preserve">
<g>
	<path fill="#1B1B19" d="M21.781,14.949h3.013c0.197,0,0.358-0.162,0.358-0.352c0-0.199-0.161-0.36-0.358-0.36h-3.013
		c-0.191,0-0.355,0.161-0.355,0.36C21.426,14.787,21.59,14.949,21.781,14.949z M23.287,41.352c-0.862,0-1.565,0.705-1.565,1.57
		c0,0.863,0.703,1.566,1.565,1.566c0.866,0,1.567-0.703,1.567-1.566C24.854,42.057,24.153,41.352,23.287,41.352z M15.601,40.01
		h15.376V17.27H15.601V40.01z M64.899,32.541c-0.729,0-1.387,0.24-1.981,0.725c-0.595,0.49-0.98,1.123-1.164,1.908
		c-0.09,0.367-0.135,0.666-0.135,0.904v2.215c0,0.969,0.291,1.787,0.888,2.453c0.592,0.66,1.364,0.996,2.312,0.996
		c1.11,0,1.983-0.426,2.603-1.287c0.62-0.857,0.928-1.988,0.928-3.396c0-1.293-0.288-2.361-0.873-3.199
		C66.834,32.988,65.978,32.541,64.899,32.541z M118.822,32.357c-1.182,0-2.086,0.525-2.703,1.582
		c-0.535,0.871-0.797,1.932-0.797,3.189c0,1.223,0.262,2.268,0.797,3.139c0.633,1.055,1.527,1.58,2.682,1.58
		c1.125,0,2.014-0.531,2.648-1.613c0.551-0.883,0.826-1.941,0.826-3.158s-0.264-2.266-0.791-3.137
		C120.855,32.883,119.975,32.357,118.822,32.357z M79.519,32.541c-0.732,0-1.387,0.24-1.982,0.725
		c-0.593,0.49-0.982,1.123-1.166,1.908c-0.091,0.367-0.134,0.666-0.134,0.904v2.215c0,0.969,0.292,1.787,0.888,2.453
		c0.592,0.66,1.364,0.996,2.309,0.996c1.119,0,1.985-0.426,2.606-1.287c0.621-0.857,0.934-1.988,0.934-3.396
		c0-1.293-0.295-2.361-0.877-3.199C81.453,32.988,80.594,32.541,79.519,32.541z M48.972,27.783H48.92
		c-0.186,0.785-0.474,1.941-0.879,3.477l-1.533,4.818h4.953l-1.554-4.818C49.739,30.764,49.426,29.605,48.972,27.783z
		 M141.242,32.213c-0.965,0-1.748,0.412-2.354,1.211c-0.492,0.637-0.787,1.404-0.875,2.293h6.158
		c0.016-0.873-0.172-1.627-0.572-2.27C143.086,32.631,142.299,32.213,141.242,32.213z M62.009,19.086
		c0.041-0.127,0.041-0.254,0.041-0.381v-0.941c-1.224-0.014-2.391,0.238-2.391,1.279c0,0.676,0.436,0.986,0.984,0.986
		C61.347,20.029,61.839,19.578,62.009,19.086z M45.878,14.78c-0.184-0.577-0.338-1.224-0.479-1.772H45.37
		c-0.14,0.549-0.295,1.209-0.45,1.772l-0.73,2.336h2.434L45.878,14.78z M153.211,0.975H7.539c-3.707,0-6.724,3.016-6.724,6.725
		v41.861c0,3.703,3.017,6.715,6.724,6.715h145.672c3.707,0,6.725-3.012,6.725-6.715V7.699C159.936,3.99,156.918,0.975,153.211,0.975
		z M143.973,14.105c2.223,0,2.955,1.828,2.955,3.334c0,0.324-0.029,0.578-0.057,0.732h-4.588c0.043,1.237,1,1.771,2.111,1.771
		c0.801,0,1.365-0.125,1.898-0.309l0.254,1.182c-0.592,0.253-1.406,0.436-2.393,0.436c-2.223,0-3.531-1.363-3.531-3.46
		C140.623,15.892,141.777,14.105,143.973,14.105z M116.512,14.26l0.084,1.027h0.043c0.309-0.535,1.055-1.182,2.193-1.182
		c1.197,0,2.436,0.773,2.436,2.939v4.066h-1.73v-3.869c0-0.984-0.367-1.73-1.309-1.73c-0.689,0-1.168,0.492-1.352,1.014
		c-0.057,0.141-0.084,0.352-0.084,0.549v4.037h-1.73v-4.811c0-0.789-0.029-1.449-0.057-2.041H116.512z M98.338,14.105
		c2.223,0,2.955,1.828,2.955,3.334c0,0.324-0.027,0.578-0.057,0.732H96.65c0.041,1.237,0.998,1.771,2.109,1.771
		c0.803,0,1.365-0.125,1.9-0.309l0.252,1.182c-0.59,0.253-1.406,0.436-2.391,0.436c-2.223,0-3.531-1.363-3.531-3.46
		C94.99,15.892,96.143,14.105,98.338,14.105z M91.246,11.123h1.729v9.988h-1.729V11.123z M77.521,15.328
		c-0.676,0-1.379,0.213-1.843,0.508L75.34,14.71c0.506-0.31,1.393-0.604,2.476-0.604c2.195,0,2.829,1.393,2.829,2.897v2.463
		c0,0.619,0.027,1.224,0.111,1.646h-1.562l-0.126-0.759h-0.042C78.618,20.887,77.9,21.268,77,21.268c-1.38,0-2.153-1-2.153-2.041
		c0-1.717,1.533-2.604,4.066-2.589v-0.112C78.913,16.075,78.729,15.328,77.521,15.328z M67.288,11.403
		c0.591,0,0.957,0.409,0.971,0.942c0,0.507-0.38,0.93-0.985,0.93c-0.577,0-0.956-0.423-0.956-0.93
		C66.317,11.813,66.711,11.403,67.288,11.403z M68.146,14.26v6.852h-1.729V14.26H68.146z M44.344,11.629h2.209l3.081,9.482h-1.871
		l-0.857-2.688h-2.998l-0.816,2.688h-1.787L44.344,11.629z M32.819,43.074c0,1.67-1.362,3.025-3.032,3.025H16.792
		c-1.672,0-3.034-1.355-3.034-3.025V14.197c0-1.671,1.362-3.029,3.034-3.029h12.995c1.67,0,3.032,1.358,3.032,3.029V43.074z
		 M53.708,43.768l-1.723-5.416h-5.996l-1.645,5.416h-3.063l5.935-18.448h3.672l5.97,18.448H53.708z M54.38,21.111h-1.703
		L50.13,14.26h1.872l1.11,3.476c0.197,0.604,0.338,1.153,0.465,1.717h0.043c0.126-0.563,0.281-1.099,0.464-1.717l1.098-3.476h1.815
		L54.38,21.111z M57.942,19.227c0-1.717,1.533-2.604,4.066-2.589v-0.112c0-0.45-0.184-1.197-1.394-1.197
		c-0.676,0-1.378,0.213-1.843,0.508l-0.338-1.126c0.506-0.31,1.393-0.604,2.477-0.604c2.194,0,2.828,1.393,2.828,2.897v2.463
		c0,0.619,0.027,1.224,0.112,1.646h-1.563l-0.126-0.759h-0.042c-0.408,0.534-1.126,0.915-2.026,0.915
		C58.716,21.268,57.942,20.268,57.942,19.227z M69.517,42.32c-1.099,1.164-2.469,1.748-4.1,1.748c-1.766,0-3.029-0.629-3.798-1.893
		v6.986h-2.954V34.836c0-1.424-0.038-2.879-0.113-4.373h2.601l0.163,2.107h0.052c0.99-1.582,2.484-2.375,4.494-2.375
		c1.569,0,2.875,0.615,3.931,1.859c1.046,1.238,1.572,2.875,1.572,4.898C71.364,39.223,70.75,41.004,69.517,42.32z M72.593,21.111
		h-1.729v-9.988h1.729V21.111z M84.133,42.32c-1.102,1.164-2.467,1.748-4.102,1.748c-1.761,0-3.026-0.629-3.795-1.893v6.986h-2.957
		V34.836c0-1.424-0.038-2.879-0.109-4.373h2.594l0.171,2.107h0.051c0.992-1.582,2.483-2.375,4.49-2.375
		c1.571,0,2.88,0.615,3.929,1.859c1.053,1.238,1.576,2.875,1.576,4.898C85.98,39.223,85.365,41.004,84.133,42.32z M86.162,21.268
		c-0.887,0-1.674-0.338-2.166-1.183h-0.029l-0.084,1.026h-1.477c0.027-0.464,0.057-1.223,0.057-1.928v-8.061h1.729v4.079h0.029
		c0.422-0.661,1.168-1.097,2.195-1.097c1.674,0,2.869,1.393,2.855,3.475C89.271,20.043,87.711,21.268,86.162,21.268z
		 M101.043,42.424c-1.209,1.078-2.881,1.613-5.027,1.613c-1.99,0-3.58-0.385-4.781-1.146l0.686-2.463
		c1.295,0.762,2.717,1.148,4.266,1.148c1.117,0,1.982-0.254,2.604-0.752c0.617-0.5,0.928-1.17,0.928-2.02
		c0-0.738-0.256-1.367-0.764-1.881c-0.516-0.512-1.357-0.982-2.545-1.424c-3.227-1.201-4.844-2.963-4.844-5.279
		c0-1.514,0.564-2.758,1.707-3.725c1.141-0.965,2.65-1.449,4.531-1.449c1.678,0,3.074,0.294,4.189,0.874l-0.746,2.409
		c-1.039-0.563-2.221-0.85-3.539-0.85c-1.043,0-1.859,0.265-2.447,0.764c-0.492,0.463-0.738,1.02-0.738,1.674
		c0,0.725,0.283,1.33,0.848,1.811c0.494,0.436,1.389,0.908,2.68,1.418c1.592,0.635,2.756,1.387,3.508,2.248
		c0.746,0.857,1.121,1.922,1.121,3.197C102.678,40.162,102.129,41.443,101.043,42.424z M111.463,32.678h-3.262v6.467
		c0,1.641,0.578,2.455,1.729,2.455c0.529,0,0.963-0.039,1.313-0.129l0.084,2.24c-0.584,0.219-1.35,0.328-2.299,0.328
		c-1.162,0-2.08-0.35-2.734-1.066c-0.664-0.709-0.99-1.906-0.99-3.584v-6.711h-1.941v-2.215h1.941v-2.434l2.898-0.876v3.31h3.262
		V32.678z M109.797,21.268c-1.928,0-3.434-1.324-3.434-3.532c0-2.251,1.477-3.63,3.545-3.63c2.041,0,3.406,1.436,3.406,3.518
		C113.314,20.142,111.541,21.268,109.797,21.268z M123.592,42.047c-1.227,1.348-2.852,2.021-4.871,2.021
		c-1.957,0-3.518-0.646-4.674-1.943c-1.158-1.293-1.734-2.932-1.734-4.9c0-2.061,0.596-3.75,1.791-5.063
		c1.197-1.318,2.803-1.967,4.828-1.967c1.959,0,3.527,0.643,4.713,1.943c1.129,1.252,1.695,2.881,1.695,4.869
		C125.34,39.057,124.76,40.729,123.592,42.047z M126.646,14.26h0.971v-1.281l1.703-0.479v1.76h1.645v1.294h-1.645v3.025
		c0,0.845,0.225,1.267,0.885,1.267c0.311,0,0.479-0.015,0.676-0.07l0.029,1.309c-0.254,0.098-0.719,0.184-1.252,0.184
		c-0.648,0-1.17-0.212-1.492-0.563c-0.381-0.394-0.549-1.027-0.549-1.928v-3.223h-0.971V14.26z M134.234,33.063
		c-0.291-0.053-0.605-0.074-0.932-0.074c-1.039,0-1.84,0.393-2.408,1.174c-0.494,0.695-0.738,1.559-0.738,2.625v6.98h-2.957v-9.119
		c0-1.525-0.025-2.922-0.078-4.186h2.572l0.109,2.547h0.082c0.309-0.873,0.799-1.578,1.477-2.104
		c0.658-0.479,1.373-0.709,2.139-0.709c0.271,0,0.52,0.014,0.734,0.049V33.063z M134.682,17.003v4.108h-1.729v-9.988h1.729v4.065
		h0.029c0.211-0.323,0.506-0.591,0.857-0.773c0.352-0.198,0.76-0.31,1.197-0.31c1.168,0,2.393,0.773,2.393,2.969v4.037h-1.732
		v-3.854c0-0.985-0.365-1.745-1.322-1.745c-0.676,0-1.154,0.451-1.35,0.971C134.697,16.638,134.682,16.82,134.682,17.003z
		 M146.883,37.832h-8.869c0.035,1.313,0.463,2.313,1.287,3.006c0.746,0.621,1.713,0.932,2.9,0.932c1.316,0,2.508-0.209,3.586-0.635
		l0.465,2.057c-1.254,0.551-2.744,0.818-4.465,0.818c-2.057,0-3.678-0.604-4.854-1.816s-1.77-2.842-1.77-4.883
		c0-2.012,0.551-3.678,1.643-5.016c1.154-1.422,2.705-2.131,4.654-2.131c1.922,0,3.371,0.709,4.354,2.131
		c0.781,1.135,1.176,2.533,1.176,4.193C146.99,37.014,146.953,37.461,146.883,37.832z M85.783,15.455
		c-0.703,0-1.352,0.508-1.533,1.267c-0.029,0.127-0.059,0.281-0.059,0.45v1.111c0,0.141,0.016,0.282,0.043,0.409
		c0.184,0.702,0.789,1.21,1.533,1.21c1.084,0,1.746-0.859,1.746-2.251C87.514,16.441,86.936,15.455,85.783,15.455z M98.24,15.287
		c-1.07,0-1.52,0.971-1.59,1.674h3.01C99.674,16.328,99.393,15.287,98.24,15.287z M109.867,15.357c-1.225,0-1.717,1.195-1.717,2.335
		c0,1.323,0.66,2.322,1.703,2.322c0.984,0,1.674-0.957,1.674-2.35C111.527,16.596,111.049,15.357,109.867,15.357z M76.563,19.043
		c0,0.676,0.437,0.986,0.984,0.986c0.704,0,1.196-0.451,1.365-0.943c0.042-0.127,0.042-0.254,0.042-0.381v-0.941
		C77.731,17.75,76.563,18.002,76.563,19.043z M143.873,15.287c-1.068,0-1.52,0.971-1.59,1.674h3.012
		C145.309,16.328,145.027,15.287,143.873,15.287z"/>
</g>
</svg>
